<?xml version="1.0" standalone="no"?>
<!DOCTYPE svg PUBLIC "-//W3C//DTD SVG 20010904//EN"
 "http://www.w3.org/TR/2001/REC-SVG-20010904/DTD/svg10.dtd">
<svg version="1.0" xmlns="http://www.w3.org/2000/svg"
 width="198.000000pt" height="198.000000pt" viewBox="0 0 198.000000 198.000000"
 preserveAspectRatio="xMidYMid meet">
<metadata>
Created by potrace 1.11, written by Peter Selinger 2001-2013
</metadata>
<g transform="translate(0.000000,198.000000) scale(0.100000,-0.100000)"
fill="#000000" stroke="none">
<path d="M940 1880 c0 -47 -2 -50 -25 -50 -18 0 -25 -5 -25 -19 0 -15 -10 -20
-50 -26 -39 -5 -50 -11 -50 -25 0 -19 -36 -30 -101 -30 -31 0 -38 -4 -41 -22
-3 -21 -9 -23 -80 -26 -70 -3 -78 -5 -78 -22 0 -13 -7 -20 -20 -20 -13 0 -20
7 -20 20 0 17 -7 20 -49 20 -46 0 -49 -1 -55 -31 -3 -17 -3 -48 0 -69 5 -30
12 -40 28 -42 13 -2 22 -11 24 -24 3 -23 40 -34 110 -34 l32 0 0 -145 0 -145
-25 0 c-20 0 -25 -5 -25 -25 0 -23 -4 -25 -45 -25 -41 0 -45 -2 -45 -25 0 -23
-3 -25 -50 -25 -47 0 -50 2 -50 25 0 23 -3 25 -50 25 l-50 0 0 -75 c0 -73 1
-75 25 -75 20 0 25 -5 25 -25 0 -24 2 -25 70 -25 l70 0 0 -144 c0 -142 0 -145
-22 -148 -15 -2 -24 -11 -26 -25 -3 -18 -12 -23 -48 -29 -34 -5 -44 -10 -44
-25 0 -16 -8 -19 -50 -19 -43 0 -50 3 -50 20 0 17 -7 20 -50 20 l-50 0 0 -70
c0 -68 1 -70 25 -70 20 0 25 -5 25 -25 0 -21 5 -25 29 -25 15 0 49 -3 75 -6
l46 -7 0 -168 0 -169 740 0 740 0 0 170 0 170 38 0 c20 0 54 3 75 6 31 6 37
11 37 30 0 19 5 24 25 24 24 0 25 2 25 70 l0 70 -50 0 c-43 0 -50 -3 -50 -20
0 -17 -7 -20 -50 -20 -42 0 -50 3 -50 19 0 15 -10 20 -44 25 -36 6 -45 11 -48
29 -2 14 -11 23 -25 25 -23 3 -23 6 -23 148 l0 144 70 0 c68 0 70 1 70 25 0
20 5 25 25 25 24 0 25 2 25 75 l0 75 -50 0 c-47 0 -50 -2 -50 -25 0 -23 -3
-25 -50 -25 -47 0 -50 2 -50 25 0 23 -4 25 -45 25 -41 0 -45 2 -45 25 0 20 -5
25 -25 25 l-25 0 0 145 0 145 33 0 c69 0 106 11 109 34 2 13 11 22 24 24 16 2
23 12 28 42 3 21 3 52 0 69 -6 30 -9 31 -55 31 -42 0 -49 -3 -49 -20 0 -13 -7
-20 -20 -20 -13 0 -20 7 -20 20 0 17 -8 19 -77 22 -72 3 -78 5 -81 26 -3 18
-10 22 -41 22 -65 0 -101 11 -101 30 0 14 -11 20 -50 25 -40 6 -50 11 -50 26
0 14 -7 19 -25 19 -23 0 -25 3 -25 50 l0 50 -50 0 -50 0 0 -50z m440 -520 l0
-120 -390 0 -390 0 0 120 0 120 390 0 390 0 0 -120z m150 -540 l0 -120 -540 0
-540 0 0 120 0 120 540 0 540 0 0 -120z m150 -575 l0 -145 -220 0 -220 0 0
100 0 100 -250 0 -250 0 0 -100 0 -100 -220 0 -220 0 0 145 0 145 690 0 690 0
0 -145z"/>
<path d="M740 1360 l0 -70 50 0 50 0 0 70 0 70 -50 0 -50 0 0 -70z"/>
<path d="M1140 1360 l0 -70 50 0 50 0 0 70 0 70 -50 0 -50 0 0 -70z"/>
<path d="M740 815 l0 -75 50 0 50 0 0 75 0 75 -50 0 -50 0 0 -75z"/>
<path d="M1140 815 l0 -75 50 0 50 0 0 75 0 75 -50 0 -50 0 0 -75z"/>
</g>
</svg>
